<svg width="49" height="10" viewBox="0 0 49 10" fill="none" xmlns="http://www.w3.org/2000/svg">
<path d="M6.38778 3.12358C6.33949 2.9446 6.26847 2.78693 6.17472 2.65057C6.08097 2.51136 5.96591 2.39347 5.82955 2.29688C5.69318 2.20028 5.53693 2.12784 5.3608 2.07955C5.18466 2.02841 4.99148 2.00284 4.78125 2.00284C4.35795 2.00284 3.99148 2.10511 3.68182 2.30966C3.375 2.5142 3.13778 2.8125 2.97017 3.20455C2.80256 3.59375 2.71875 4.06676 2.71875 4.62358C2.71875 5.18324 2.79972 5.66051 2.96165 6.0554C3.12358 6.45028 3.35795 6.75142 3.66477 6.95881C3.97159 7.16619 4.34375 7.26989 4.78125 7.26989C5.16761 7.26989 5.49432 7.20739 5.76136 7.08239C6.03125 6.95455 6.2358 6.77415 6.375 6.54119C6.5142 6.30824 6.58381 6.03409 6.58381 5.71875L6.97585 5.76562H4.85369V4.22727H8.61648V5.3821C8.61648 6.16335 8.45028 6.83239 8.1179 7.3892C7.78835 7.94602 7.33381 8.37358 6.75426 8.67188C6.17756 8.97017 5.5142 9.11932 4.7642 9.11932C3.93182 9.11932 3.20028 8.93892 2.5696 8.57812C1.93892 8.21733 1.44744 7.70312 1.09517 7.03551C0.742898 6.36506 0.566761 5.5696 0.566761 4.64915C0.566761 3.93324 0.673295 3.2983 0.886364 2.74432C1.09943 2.1875 1.39631 1.71591 1.77699 1.32955C2.16051 0.943182 2.60369 0.650568 3.10653 0.451704C3.61222 0.252841 4.15625 0.153409 4.73864 0.153409C5.24432 0.153409 5.71449 0.225852 6.14915 0.370739C6.58665 0.515625 6.97301 0.72017 7.30824 0.984375C7.64631 1.24858 7.92045 1.5625 8.13068 1.92614C8.34091 2.28977 8.47159 2.68892 8.52273 3.12358H6.38778ZM12.9151 9.12358C12.2276 9.12358 11.6367 8.98295 11.1424 8.7017C10.6509 8.41761 10.2717 8.02273 10.0046 7.51705C9.74041 7.00852 9.60831 6.41903 9.60831 5.74858C9.60831 5.07528 9.74041 4.4858 10.0046 3.98011C10.2717 3.47159 10.6509 3.0767 11.1424 2.79545C11.6367 2.51136 12.2276 2.36932 12.9151 2.36932C13.6026 2.36932 14.1921 2.51136 14.6836 2.79545C15.1779 3.0767 15.5572 3.47159 15.8214 3.98011C16.0884 4.4858 16.2219 5.07528 16.2219 5.74858C16.2219 6.41903 16.0884 7.00852 15.8214 7.51705C15.5572 8.02273 15.1779 8.41761 14.6836 8.7017C14.1921 8.98295 13.6026 9.12358 12.9151 9.12358ZM12.9279 7.55114C13.1779 7.55114 13.3896 7.47443 13.5629 7.32102C13.7362 7.16761 13.8683 6.95455 13.9592 6.68182C14.0529 6.40909 14.0998 6.09375 14.0998 5.7358C14.0998 5.37216 14.0529 5.05398 13.9592 4.78125C13.8683 4.50852 13.7362 4.29545 13.5629 4.14205C13.3896 3.98864 13.1779 3.91193 12.9279 3.91193C12.6694 3.91193 12.4506 3.98864 12.2717 4.14205C12.0955 4.29545 11.9606 4.50852 11.8668 4.78125C11.7759 5.05398 11.7305 5.37216 11.7305 5.7358C11.7305 6.09375 11.7759 6.40909 11.8668 6.68182C11.9606 6.95455 12.0955 7.16761 12.2717 7.32102C12.4506 7.47443 12.6694 7.55114 12.9279 7.55114ZM19.3732 5.26705V9H17.2894V2.45455H19.271V3.65625H19.3434C19.4883 3.25568 19.7354 2.94176 20.0849 2.71449C20.4343 2.48438 20.8505 2.36932 21.3335 2.36932C21.7937 2.36932 22.1928 2.47301 22.5309 2.6804C22.8718 2.88494 23.136 3.17187 23.3235 3.54119C23.5138 3.90767 23.6076 4.33665 23.6048 4.82812V9H21.521V5.23722C21.5238 4.87358 21.4315 4.58949 21.244 4.38494C21.0593 4.1804 20.8022 4.07812 20.4727 4.07812C20.2539 4.07812 20.0607 4.12642 19.8931 4.22301C19.7283 4.31676 19.6005 4.4517 19.5096 4.62784C19.4215 4.80398 19.3761 5.01705 19.3732 5.26705ZM24.9119 9V7.81108L27.946 4.11648V4.07386H25.0185V2.45455H30.4304V3.75852L27.6179 7.33807V7.38068H30.5327V9H24.9119ZM33.7244 9.1108C33.3068 9.1108 32.9361 9.04119 32.6122 8.90199C32.2912 8.75994 32.0369 8.54687 31.8494 8.26278C31.6648 7.97585 31.5724 7.61648 31.5724 7.18466C31.5724 6.82102 31.6364 6.5142 31.7642 6.2642C31.892 6.0142 32.0682 5.81108 32.2926 5.65483C32.517 5.49858 32.7756 5.38068 33.0682 5.30114C33.3608 5.21875 33.6733 5.16335 34.0057 5.13494C34.3778 5.10085 34.6776 5.06534 34.9048 5.02841C35.1321 4.98864 35.2969 4.93324 35.3991 4.86222C35.5043 4.78835 35.5568 4.68466 35.5568 4.55114V4.52983C35.5568 4.31108 35.4815 4.14205 35.331 4.02273C35.1804 3.90341 34.9773 3.84375 34.7216 3.84375C34.446 3.84375 34.2244 3.90341 34.0568 4.02273C33.8892 4.14205 33.7827 4.30682 33.7372 4.51705L31.8153 4.44886C31.8722 4.05114 32.0185 3.69602 32.2543 3.38352C32.4929 3.06818 32.8196 2.82102 33.2344 2.64205C33.652 2.46023 34.1534 2.36932 34.7386 2.36932C35.1563 2.36932 35.5412 2.41903 35.8935 2.51847C36.2457 2.61506 36.5526 2.7571 36.8139 2.9446C37.0753 3.12926 37.277 3.35653 37.419 3.62642C37.5639 3.89631 37.6364 4.20455 37.6364 4.55114V9H35.6761V8.08807H35.625C35.5085 8.30966 35.3594 8.49716 35.1776 8.65057C34.9986 8.80398 34.7869 8.91903 34.5426 8.99574C34.3011 9.07244 34.0284 9.1108 33.7244 9.1108ZM34.3679 7.74716C34.5923 7.74716 34.794 7.7017 34.973 7.6108C35.1548 7.51989 35.2997 7.39489 35.4077 7.2358C35.5156 7.07386 35.5696 6.88636 35.5696 6.6733V6.05114C35.5099 6.08239 35.4375 6.1108 35.3523 6.13636C35.2699 6.16193 35.179 6.18608 35.0795 6.20881C34.9801 6.23153 34.8778 6.25142 34.7727 6.26847C34.6676 6.28551 34.5668 6.30114 34.4702 6.31534C34.2741 6.34659 34.1065 6.39489 33.9673 6.46023C33.831 6.52557 33.7259 6.6108 33.652 6.71591C33.581 6.81818 33.5455 6.94034 33.5455 7.08239C33.5455 7.2983 33.6222 7.46307 33.7756 7.5767C33.9318 7.69034 34.1293 7.74716 34.3679 7.74716ZM40.9943 0.272727V9H38.9105V0.272727H40.9943ZM45.3761 9.12358C44.6886 9.12358 44.0977 8.98295 43.6033 8.7017C43.1119 8.41761 42.7326 8.02273 42.4656 7.51705C42.2013 7.00852 42.0692 6.41903 42.0692 5.74858C42.0692 5.07528 42.2013 4.4858 42.4656 3.98011C42.7326 3.47159 43.1119 3.0767 43.6033 2.79545C44.0977 2.51136 44.6886 2.36932 45.3761 2.36932C46.0636 2.36932 46.6531 2.51136 47.1445 2.79545C47.6388 3.0767 48.0181 3.47159 48.2823 3.98011C48.5494 4.4858 48.6829 5.07528 48.6829 5.74858C48.6829 6.41903 48.5494 7.00852 48.2823 7.51705C48.0181 8.02273 47.6388 8.41761 47.1445 8.7017C46.6531 8.98295 46.0636 9.12358 45.3761 9.12358ZM45.3888 7.55114C45.6388 7.55114 45.8505 7.47443 46.0238 7.32102C46.1971 7.16761 46.3292 6.95455 46.4201 6.68182C46.5138 6.40909 46.5607 6.09375 46.5607 5.7358C46.5607 5.37216 46.5138 5.05398 46.4201 4.78125C46.3292 4.50852 46.1971 4.29545 46.0238 4.14205C45.8505 3.98864 45.6388 3.91193 45.3888 3.91193C45.1303 3.91193 44.9116 3.98864 44.7326 4.14205C44.5565 4.29545 44.4215 4.50852 44.3278 4.78125C44.2369 5.05398 44.1914 5.37216 44.1914 5.7358C44.1914 6.09375 44.2369 6.40909 44.3278 6.68182C44.4215 6.95455 44.5565 7.16761 44.7326 7.32102C44.9116 7.47443 45.1303 7.55114 45.3888 7.55114Z" fill="black"/>
</svg>
